{"accessors":[{"bufferView":0,"byteOffset":0,"componentType":5123,"count":18738,"type":"SCALAR","max":[18737],"min":[0]},{"bufferView":1,"byteOffset":0,"componentType":5126,"count":18738,"type":"VEC3","max":[110.18293762207031,645.6054077148438,26.00001335144043],"min":[-154.54522705078125,-235.9884796142578,-0.000005791559487988707],"name":"POSITION"},{"bufferView":1,"byteOffset":12,"componentType":5126,"count":18738,"type":"VEC3","max":[1.0000038146972656,0.999077320098877,1.0000044107437134],"min":[-1.0000039339065552,-0.9946724772453308,-1.0000044107437134],"name":"NORMAL"},{"bufferView":1,"byteOffset":24,"componentType":5126,"count":18738,"type":"VEC2","max":[0.2959862947463989,-0.019999999552965164],"min":[0.019999999552965164,-0.9799999594688416],"name":"TEXCOORD_0"},{"bufferView":0,"byteOffset":37476,"componentType":5123,"count":18738,"type":"SCALAR","max":[18737],"min":[0]},{"bufferView":2,"byteOffset":0,"componentType":5126,"count":18738,"type":"VEC3","max":[110.18293762207031,645.6054077148438,26.00001335144043],"min":[-154.54522705078125,-235.9884796142578,-0.000005791559487988707],"name":"POSITION"},{"bufferView":2,"byteOffset":12,"componentType":5126,"count":18738,"type":"VEC3","max":[1.0000038146972656,0.999077320098877,1.0000044107437134],"min":[-1.0000039339065552,-0.9946724772453308,-1.0000044107437134],"name":"NORMAL"},{"bufferView":2,"byteOffset":24,"componentType":5126,"count":18738,"type":"VEC2","max":[0.2959862947463989,-0.019999999552965164],"min":[0.019999999552965164,-0.9799999594688416],"name":"TEXCOORD_0"}],"asset":{"generator":"Aspose.3D 22.1","version":"2.0"},"buffers":[{"uri":"data:application/octet-stream;base64,","byteLength":1274196}],"bufferViews":[{"buffer":0,"byteOffset":0,"byteLength":74952,"target":34963},{"buffer":0,"byteOffset":74956,"byteLength":599616,"byteStride":32,"target":34962},{"buffer":0,"byteOffset":674576,"byteLength":599616,"byteStride":32,"target":34962}],"materials":[{"name":"","pbrMetallicRoughness":{"baseColorFactor":[0,0,0,1],"metallicFactor":0,"roughnessFactor":0},"emissiveFactor":[0,0,0],"alphaMode":"OPAQUE","doubleSided":false},{"name":"","pbrMetallicRoughness":{"baseColorFactor":[0,0,0,1],"metallicFactor":0,"roughnessFactor":0},"emissiveFactor":[0,0,0],"alphaMode":"OPAQUE","doubleSided":false}],"meshes":[{"primitives":[{"attributes":{"POSITION":1,"NORMAL":2,"TEXCOORD_0":3},"indices":0,"material":0,"mode":4}],"name":""},{"primitives":[{"attributes":{"POSITION":5,"NORMAL":6,"TEXCOORD_0":7},"indices":4,"material":1,"mode":4}],"name":""}],"nodes":[{"matrix":[-0.7127101867311938,-1.951099104502907e-8,0.4300162465228339,0,-0.4300162465228339,7.010525066533591e-8,-0.7127101867311906,0,-1.418501838013877e-7,-6.051685999999978,-5.09684144480313e-7,0,-388.2666931152344,163.53753662109375,-37.23332214355469,1],"mesh":0,"name":"muromedioLP"},{"matrix":[-0.803036178969463,-9.662511998445367e-9,-0.21909513415437698,0,0.21909513415437698,-7.21253159103883e-8,-0.8030361789694599,0,-7.024907719170986e-8,-6.051685999999977,5.243705640875798e-7,0,-17.5404052734375,163.53753662109375,-37.1885986328125,1],"mesh":1,"name":"muromedioLP001"}],"scene":0,"scenes":[{"nodes":[0,1]}]}